<?xml version="1.0" encoding="utf-8"?>
<!-- Generator: Adobe Illustrator 16.0.0, SVG Export Plug-In . SVG Version: 6.00 Build 0)  -->
<!DOCTYPE svg PUBLIC "-//W3C//DTD SVG 1.1//EN" "http://www.w3.org/Graphics/SVG/1.1/DTD/svg11.dtd">
<svg version="1.1" id="Layer_1" xmlns="http://www.w3.org/2000/svg" xmlns:xlink="http://www.w3.org/1999/xlink" x="0px" y="0px"
	 width="560px" height="80px" viewBox="0 0 560 80" enable-background="new 0 0 560 80" xml:space="preserve">
<g>
	<circle fill="#5E5E67" cx="264" cy="24" r="8"/>
	<circle fill="#5E5E67" cx="264" cy="56" r="8"/>
	<circle fill="#5E5E67" cx="296" cy="24" r="8"/>
	<circle fill="#5E5E67" cx="296" cy="56" r="8"/>
</g>
<g>
	<g>
		<circle fill="#5E5E67" cx="424" cy="40" r="8"/>
		<circle fill="#5E5E67" cx="424" cy="20" r="8"/>
		<circle fill="#5E5E67" cx="424" cy="60" r="8"/>
	</g>
	<g>
		<circle fill="#5E5E67" cx="456" cy="40" r="8"/>
		<circle fill="#5E5E67" cx="456" cy="20" r="8"/>
		<circle fill="#5E5E67" cx="456" cy="60" r="8"/>
	</g>
</g>
<circle fill="#5E5E67" cx="40" cy="40" r="8"/>
<circle fill="#5E5E67" cx="200" cy="40" r="8"/>
<circle fill="#5E5E67" cx="180" cy="20" r="8"/>
<circle fill="#5E5E67" cx="220" cy="60" r="8"/>
<circle fill="#5E5E67" cx="100" cy="24" r="8"/>
<circle fill="#5E5E67" cx="140" cy="56" r="8"/>
<circle fill="#5E5E67" cx="360" cy="40" r="8"/>
<circle fill="#5E5E67" cx="340" cy="20" r="8"/>
<circle fill="#5E5E67" cx="380" cy="60" r="8"/>
<circle fill="#5E5E67" cx="380" cy="20" r="8"/>
<circle fill="#5E5E67" cx="340" cy="60" r="8"/>
<g>
	<g>
		<path fill="#5E5E67" d="M516.316,54.397c-0.025-0.924-0.038-1.618-0.038-2.08c0-2.721,0.385-5.071,1.155-7.05
			c0.564-1.488,1.477-2.99,2.735-4.507c0.925-1.104,2.587-2.716,4.988-4.834s3.961-3.807,4.681-5.065
			c0.719-1.258,1.079-2.632,1.079-4.122c0-2.696-1.054-5.065-3.159-7.107c-2.106-2.042-4.688-3.062-7.743-3.062
			c-2.954,0-5.419,0.925-7.396,2.774c-1.979,1.849-3.275,4.738-3.892,8.667l-7.126-0.848c0.641-5.265,2.548-9.296,5.721-12.096
			c3.171-2.799,7.363-4.199,12.577-4.199c5.521,0,9.925,1.502,13.213,4.507c3.287,3.004,4.931,6.639,4.931,10.901
			c0,2.466-0.577,4.738-1.733,6.818c-1.155,2.081-3.416,4.61-6.779,7.589c-2.261,2.003-3.737,3.481-4.431,4.431
			c-0.693,0.95-1.208,2.041-1.541,3.274c-0.334,1.232-0.526,3.235-0.577,6.009H516.316z M515.893,68.305v-7.897h7.897v7.897H515.893
			z"/>
	</g>
</g>
</svg>
